# xmcd
#
# Track frame offsets:
# 180
# 50367
# 88794
# 138727
# 161645
# 199481
# 239907
#
# Disc length: 3373 seconds
#
#
# Revision: 2
# Processed by: cddbd v1.5.2PL0 Copyright (c) Steve Scherf et al.
# Submitted via: FreeRIP 2.60 
#
DISCID=6b0d2b07
DTITLE=The country road band All stars medley - All stars medley
DYEAR=1900
DGENRE=
TTITLE0=Medley, Louisiana
TTITLE1=Medley, San Antonio
TTITLE2=Medley, Neveda
TTITLE3=Medley, Memphis
TTITLE4=Medley, Toledo
TTITLE5=Medley, Montana
TTITLE6=Jambalaya dance
EXTD=
EXTT0=
EXTT1=
EXTT2=
EXTT3=
EXTT4=
EXTT5=
EXTT6=
PLAYORDER=
